<svg width="22" height="20" viewBox="0 0 22 20" fill="none" xmlns="http://www.w3.org/2000/svg">
<path d="M15.5833 4.6875C15.5833 6.82031 12.7913 10.6211 11.5653 12.1523C11.2712 12.5625 10.7288 12.5625 10.4347 12.1523C9.20868 10.6211 6.41667 6.82031 6.41667 4.6875C6.41667 2.09883 8.46771 0 11 0C13.5323 0 15.5833 2.09883 15.5833 4.6875ZM11 5.9375C11.8441 5.9375 12.5278 5.23828 12.5278 4.375C12.5278 3.51211 11.8441 2.8125 11 2.8125C10.1559 2.8125 9.47222 3.51211 9.47222 4.375C9.47222 5.23828 10.1559 5.9375 11 5.9375ZM16.2556 7.02344C16.2747 6.97656 16.2938 6.92969 16.3128 6.87891L20.7434 5.06641C21.3469 4.82031 22 5.27344 22 5.9375V16.5156C22 16.8984 21.7708 17.2422 21.4233 17.3867L15.8889 19.6484V7.82812C16.0226 7.55859 16.1448 7.29297 16.2556 7.02344ZM5.74444 7.02344C5.85521 7.29297 5.97743 7.55859 6.11111 7.82812V17.6484L1.25698 19.6367C0.655035 19.8477 0 19.4297 0 18.7656V8.1875C0 7.80469 0.228212 7.42578 0.576354 7.31641L5.25556 5.40234C5.34722 5.95703 5.53437 6.50781 5.74444 7.02344ZM12.5201 12.9336C13.051 12.2891 13.8837 11.1836 14.6667 9.96094V19.6992L7.33333 17.5547V9.96094C8.11632 11.1836 8.94896 12.2891 9.47986 12.9336C10.2628 13.9688 11.7372 13.9688 12.5201 12.9336Z" fill="white"/>
</svg>
